<?xml version="1.0" encoding="UTF-8"?>
<svg id="Vrstva_1" data-name="Vrstva 1" xmlns="http://www.w3.org/2000/svg" viewBox="0 0 499.6 497.57">
  <defs>
    <style>
      .cls-1 {
        fill: #121212;
      }
    </style>
  </defs>
  <path class="cls-1" d="M303.26,316.67h.14V93.76h85.13c5.31,0,9.64,1.83,13,5.48,3.36,3.65,5.04,8.36,5.04,14.13v104.94c0,13.32-8.23,19.97-24.69,19.97-1.63,0-4.01-.09-7.15-.26-3.14-.17-5.42-.26-6.82-.26,14.63,44.05,29.19,88.22,43.71,132.5l-.03-.02h-.07l6.7,19.04s-.07,.1-.11,.14c45.78-58.66,81.5-144.67,81.5-267.9L249.8,0,0,121.52c0,116.85,30.08,199.17,70.72,256.68v-7.96h.04V93.76h20.95l41.27,179.84c.21,.94,.42,3.59,.65,7.94,0-1.77,.21-4.42,.65-7.94l41.27-179.84h20.95V367.71h.1v114.69c15.13,6.83,29.33,11.74,41.75,15.14V93.82h.04v-.06h22.58v.06h1.02V497.57c12.02-3.22,26.14-8.25,41.39-15.47-.04,.02-.09,.04-.14,.06v-165.49Zm-41.26-236.91h-23.71l23.01-37.78h23.69l-22.99,37.78Z"/>
  <path class="cls-1" d="M340.6,222.19l3.09-4.94h40.29V115.5h-57.99v254.74h-.01v99.96s-.06,.04-.09,.06c24.64-14.33,50.87-34.17,75.29-60.83l-13.31-39.19-47.27-148.05Z"/>
  <path class="cls-1" d="M175.15,367.71h.07V195.17c0-2.48,.75-9.71,2.28-21.72l-41.6,170.83h-4.54l-41.6-170.83c1.51,12.13,2.28,19.37,2.28,21.72v210c26.44,29.95,55.56,51.38,83.01,66.47,0,0,0,0,0,0l.1-103.92Z"/>
</svg>