<?xml version="1.0" encoding="UTF-8"?>
<svg id="Vrstva_1" data-name="Vrstva 1" xmlns="http://www.w3.org/2000/svg" viewBox="0 0 499.6 500.38">
  <defs>
    <style>
      .cls-1 {
        fill: #121212;
      }

      .cls-2 {
        fill: #f3f3f3;
      }
    </style>
  </defs>
  <g id="Vrstva_4" data-name="Vrstva 4">
    <path class="cls-1" d="M0,121.52L249.8,0l249.8,121.52c0,276.65-180.02,365.72-249.8,378.86C172.88,483.38,0,401.69,0,121.52Z"/>
  </g>
  <g id="Vrstva_2" data-name="Vrstva 2">
    <g>
      <path class="cls-2" d="M196.5,370.24h-21.28V195.17c0-2.48,.75-9.71,2.28-21.72l-41.6,170.83h-4.54l-41.6-170.83c1.51,12.13,2.28,19.37,2.28,21.72v175.06h-21.28V93.76h20.95l41.27,179.84c.21,.94,.42,3.59,.65,7.94,0-1.77,.21-4.42,.65-7.94l41.27-179.84h20.95V370.24h-.01Z"/>
      <path class="cls-2" d="M260.99,370.24h-22.58V93.76h22.58V370.24Z"/>
      <path class="cls-2" d="M411.58,370.24h-23.71l-47.27-148.05,3.09-4.94h40.29V115.5h-57.99v254.74h-22.58V93.76h85.13c5.31,0,9.64,1.83,13,5.48,3.36,3.65,5.04,8.36,5.04,14.13v104.94c0,13.32-8.23,19.97-24.69,19.97-1.63,0-4.01-.09-7.15-.26-3.14-.17-5.42-.26-6.82-.26,14.63,44.05,29.19,88.22,43.71,132.5l-.03-.02Z"/>
    </g>
    <path class="cls-2" d="M70.73,378.24c2.55,3.94,5.44,8.08,8.69,12.32,4.3,5.57,8.57,10.44,12.61,14.64v-34.96h-21.32v8.01h.01Z"/>
    <path class="cls-2" d="M401.18,409.42c2.76-2.86,11.04-12.3,17.03-20.14l-6.7-19.04h-23.64l13.31,39.2v-.02Z"/>
    <path class="cls-2" d="M238.36,497.54c1.68,.51,3.43,.99,5.25,1.45,2.14,.54,4.16,1.12,6.19,1.39,1.73-.2,3.43-.59,5.24-.99,2.48-.54,4.8-1.15,6.97-1.82V93.82h-23.64V497.54Z"/>
    <path class="cls-2" d="M303.26,482.16c4.57-1.97,19.85-9.96,22.71-11.96v-153.53h-22.71v165.49Z"/>
    <path class="cls-2" d="M175.05,471.63c2.8,1.97,17.2,8.88,21.56,10.78v-114.7h-21.46l-.1,103.92h0Z"/>
    <polygon class="cls-2" points="238.3 79.77 261.3 41.98 285 41.98 262.01 79.77 238.3 79.77"/>
  </g>
</svg>