<?xml version="1.0" encoding="UTF-8"?>
<svg id="Vrstva_1" data-name="Vrstva 1" xmlns="http://www.w3.org/2000/svg" viewBox="0 0 1922.78 312.17">
  <defs>
    <style>
      .cls-1 {
        stroke: #46d921;
        stroke-width: 10px;
      }

      .cls-1, .cls-2 {
        fill: none;
        stroke-miterlimit: 10;
      }

      .cls-2 {
        stroke: #333;
        stroke-width: 2px;
      }

      .cls-3 {
        fill: #1f1f1f;
        stroke-width: 0px;
      }
    </style>
  </defs>
  <path class="cls-3" d="M1.39,141.69v169.81h1920v-169.81C1691.82,75.21,1370.12,7.86,982.39,5.5,574.53,3.02,237.48,73.33,1.39,141.69Z"/>
  <path class="cls-1" d="M1.39,140.5C232.55,73.78,559.27,5.63,953.89,5c401.9-.63,734.08,69,967.5,136.69"/>
  <path class="cls-2" d="M16.07,143.38c43.32,42.12,93.32,77.12,149.32,101.12,64,26,132,37,200,35,62-3,122-18,179-42,20-8,40-17,60-26,15-6,30-11,45-17,3-1,7-1,10-2,1-1,3-2,4-2,3-1,7-1,10-2,31-11,61-19,92-29,6-2,13-2,19-4,92-26,182-39,276-48,30-2,59-4,89-5,30,0,61-1,91,1,20,0,40,1,60,3,49,4,95,11,145,22,75,17,144,38,213,68l18,6c67,30,130,66,189.19,108.86"/>
  <path class="cls-2" d="M22.69,140.94c19.56,34.88,43.6,66.9,69.86,97.03,10.03,11.51,29.56,26.93,23.64,44.51s-28.7,19.8-44.76,20.87c-23.02,1.53-46.14.35-69.04-2.22"/>
  <g>
    <path class="cls-2" d="M1906.02,142.87c-8.63,7.64-16.63,16.64-26.63,24.64-1,1-3,1-4,2-31,28-67,49-103,68-19,6-36,15-55,21-82,26-166,27-252,8-1,0-3-2-4-2-22-4-43-11-63-19-55-25-110-46-168-65-63-19-124-37-190-49-30-5-57-10-86-14-26-3-50-7-76-9h-10c-30-4-59-5-89-5-47-2-94-2-141,3-8,0-16-1-24,0-126,12-248,42-363,95-5,2-9,3-14,5-54,27-104,53-156,88-9,6-18,9-24.86,16.58"/>
    <path class="cls-2" d="M1897.61,141.33c-11.04,18.3-21.93,36.72-34.71,53.87-6.1,8.18-12.18,16.41-18.68,24.29-6.08,7.37-12.94,14.07-19.34,21.16-9.91,10.98-24.6,26.5-20,42.65,5.14,18.06,27.71,20.74,43.51,20.2,24.23-.82,48.27-1.03,72.42-3.63"/>
  </g>
</svg>