<?xml version="1.0" encoding="UTF-8"?>
<svg id="Vrstva_1" data-name="Vrstva 1" xmlns="http://www.w3.org/2000/svg" viewBox="0 0 2130.84 1082.01">
  <defs>
    <style>
      .cls-1 {
        fill: none;
        stroke: #272727;
        stroke-miterlimit: 10;
        stroke-width: 2px;
      }

      .cls-2 {
        fill: #1f1f1f;
        stroke-width: 0px;
      }
    </style>
  </defs>
  <rect class="cls-2" x="101.92" y="1.2" width="1920" height="1080"/>
  <path class="cls-1" d="M11.83,177.2c166.44,27.27,381.74,80.84,610.97,191,104.39,50.16,194.74,103.93,271.66,156,64.36,42.57,163.07,95.33,293.48,122,319.68,65.38,580.64-76.96,645.88-115,35.71-22.12,73.67-48.23,112.38-79,73.32-58.29,129.72-117.68,172.38-169.96"/>
  <path class="cls-1" d="M23.83,118.6c92.34-27.42,217.87-55.46,368.76-63.4,165.02-8.69,303.84,9.63,403.68,30,128.24,30.35,265.9,58.92,412.41,84,146.17,25.02,285.49,43.89,416.77,58,61.99,2.23,139.02.03,225.84-14,111.12-17.96,201.46-49.36,267.3-77.71"/>
  <path class="cls-1" d="M.92,743.2c6.46,15.36,114.13,259.66,375.31,300,126.04,19.47,229.21-17.62,276.03-38,87.94-37.73,207.26-79.6,353.49-106,144.11-26.02,270.13-29.04,366.26-25,74.9,4.59,173.23,17.62,282.9,52,141.21,44.26,246.47,106.74,315.04,155"/>
  <path class="cls-1" d="M11.83,317.3c82.73,18.98,200.43,55.58,324.03,129.9,88.23,53.05,154.49,110.3,201.84,158,37.52,52.5,48.38,115.41,20.73,158-38.98,60.05-157.87,84.86-261.5,23.06-15.13-9.02-31.14-16.75-47.88-22.93-46.93-17.33-123.65-39.47-153.21-11.13-36.96,35.43,5.99,143.8,112.38,269,11.8,14.32,15.8,25.65,12,34-10.46,22.95-79.92,23.3-208.38,1.06"/>
  <path class="cls-1" d="M2118.59,605.61l-362.22,115.58c-81.93,29.94-219.08,69.1-392.77,68-202.19-1.28-357.17-56.52-440.77-93-59.77-35.7-121.43-74.61-184.38-117-81.41-54.81-156.25-109.55-224.75-163-19.34-11.66-153.95-89.91-313.12-44-98.12,28.3-155.09,89.22-176.75,115.23"/>
  <line class="cls-1" x1="1969.94" y1="1.2" x2="2118.59" y2="65.35"/>
  <path class="cls-1" d="M23.83,147.17c139.79,21.07,301.82,54.44,477.87,108.03,162.38,49.43,303.63,106.01,422.56,161,8.83,3.8,78.86,32.62,153.49-1,78.4-35.32,94.46-109.15,96.01-117,5.58-36.82,20.37-57.13,36-69,80.64-61.27,289.78,21.14,528.05,197,50.95,39.89,106.19,89.37,160.38,150,116.82,130.72,182.55,261.65,220.39,359.29"/>
  <g>
    <path class="cls-1" d="M2119.01,176.92c-166.44,27.27-381.74,80.84-610.97,191-104.39,50.16-194.74,103.93-271.66,156-64.36,42.57-163.07,95.33-293.48,122-319.68,65.38-580.64-76.96-645.88-115-35.71-22.12-73.67-48.23-112.38-79-73.32-58.29-129.72-117.68-172.38-169.96"/>
    <path class="cls-1" d="M2107.01,118.32c-92.34-27.42-217.87-55.46-368.76-63.4-165.02-8.69-303.84,9.63-403.68,30-128.24,30.35-265.9,58.92-412.41,84-146.17,25.02-285.49,43.89-416.77,58-61.99,2.23-139.02.03-225.84-14-111.12-17.96-201.46-49.36-267.3-77.71"/>
    <path class="cls-1" d="M2129.92,742.92c-6.46,15.36-114.13,259.66-375.31,300-126.04,19.47-229.21-17.62-276.03-38-87.94-37.73-207.26-79.6-353.49-106-144.11-26.02-270.13-29.04-366.26-25-74.9,4.59-173.23,17.62-282.9,52-141.21,44.26-246.47,106.74-315.04,155"/>
    <path class="cls-1" d="M2119.01,317.02c-82.73,18.98-200.43,55.58-324.03,129.9-88.23,53.05-154.49,110.3-201.84,158-37.52,52.5-48.38,115.41-20.73,158,38.98,60.05,157.87,84.86,261.5,23.06,15.13-9.02,31.14-16.75,47.88-22.93,46.93-17.33,123.65-39.47,153.21-11.13,36.96,35.43-5.99,143.8-112.38,269-11.8,14.32-15.8,25.65-12,34,10.46,22.95,79.92,23.3,208.38,1.06"/>
    <path class="cls-1" d="M12.25,605.33l362.22,115.58c81.93,29.94,219.08,69.1,392.77,68,202.19-1.28,357.17-56.52,440.77-93,59.77-35.7,121.43-74.61,184.38-117,81.41-54.81,156.25-109.55,224.75-163,19.34-11.66,153.95-89.91,313.12-44,98.12,28.3,155.09,89.22,176.75,115.23"/>
    <line class="cls-1" x1="160.9" y1=".92" x2="12.25" y2="65.07"/>
    <path class="cls-1" d="M2107.01,146.89c-139.79,21.07-301.82,54.44-477.87,108.03-162.38,49.43-303.63,106.01-422.56,161-8.83,3.8-78.86,32.62-153.49-1-78.4-35.32-94.46-109.15-96.01-117-5.58-36.82-20.37-57.13-36-69-80.64-61.27-289.78,21.14-528.05,197-50.95,39.89-106.19,89.37-160.38,150C115.82,706.64,50.09,837.57,12.25,935.2"/>
  </g>
</svg>